<svg xmlns="http://www.w3.org/2000/svg" xmlns:xlink="http://www.w3.org/1999/xlink" width="400" height="400" class="icon" p-id="1958" t="1620474200769" version="1.1" viewBox="0 0 1024 1024"><defs><style type="text/css"/></defs><path fill="#4988FD" d="M593.688 222H334.5c-40.042 0-72.5 32.458-72.5 72.5V802" p-id="1959"/><path fill="#4988FD" d="M292 802h-60V294.5C232 237.982 277.982 192 334.5 192h259.188v60H334.5c-23.434 0-42.5 19.066-42.5 42.5V802z" p-id="1960"/><path fill="#4988FD" d="M328 222h259.188c40.042 0 72.5 32.458 72.5 72.5v504.29H259.622" p-id="1961"/><path fill="#4988FD" d="M689.688 828.79H259.622v-60h370.066V294.5c0-23.434-19.064-42.5-42.5-42.5H328V192h259.188c56.52 0 102.5 45.982 102.5 102.5v534.29z" p-id="1962"/><path fill="#4988FD" d="M590 512h152c37.554 0 68 30.446 68 68v252H522V580c0-37.554 30.446-68 68-68z" p-id="1963"/><path fill="#DFECFD" d="M750 832h-168c-33.084 0-60-26.916-60-60v-192c0-37.496 30.504-68 68-68h152c37.496 0 68 30.504 68 68v192c0 33.084-26.916 60-60 60z m-160-260c-4.412 0-8 3.588-8 8v192h168a0.26 0.26 0 0 0 0.038-0.002L750 580c0-4.412-3.588-8-8-8h-152z" p-id="1964"/><path fill="#DFECFD" d="M522 643h288v60H522z" p-id="1965"/><path fill="#DFECFD" d="M636 512h60v290h-60zM368 332h60a12 12 0 0 1 12 12v60a12 12 0 0 1-12 12h-60a12 12 0 0 1-12-12v-60a12 12 0 0 1 12-12zM368 476h60a12 12 0 0 1 12 12v60a12 12 0 0 1-12 12h-60a12 12 0 0 1-12-12v-60a12 12 0 0 1 12-12zM368 620h60a12 12 0 0 1 12 12v60a12 12 0 0 1-12 12h-60a12 12 0 0 1-12-12v-60a12 12 0 0 1 12-12zM492 332h60a12 12 0 0 1 12 12v60a12 12 0 0 1-12 12h-60a12 12 0 0 1-12-12v-60a12 12 0 0 1 12-12z" p-id="1966"/><path fill="#4988FD" d="M192 772h640v60H192z" p-id="1967"/></svg>